<mxfile host="app.diagrams.net" modified="2020-11-02T22:00:25.905Z" agent="5.0 (Windows NT 10.0; Win64; x64) AppleWebKit/537.36 (KHTML, like Gecko) Chrome/86.0.4240.111 Safari/537.36" etag="6Ffq3tRfmikVaFS_talJ" version="13.8.2" type="github">
  <diagram id="7DXJRm-n8nbcEx_5CR6j" name="Page-1">
    <mxGraphModel dx="2377" dy="836" grid="1" gridSize="10" guides="1" tooltips="1" connect="1" arrows="1" fold="1" page="1" pageScale="1" pageWidth="827" pageHeight="1169" math="0" shadow="0">
      <root>
        <mxCell id="0" />
        <mxCell id="1" parent="0" />
        <mxCell id="7fnrjBrvbFBZ3waU3Qu5-20" style="edgeStyle=orthogonalEdgeStyle;rounded=0;orthogonalLoop=1;jettySize=auto;html=1;entryX=0.5;entryY=0;entryDx=0;entryDy=0;" edge="1" parent="1" source="7fnrjBrvbFBZ3waU3Qu5-2" target="7fnrjBrvbFBZ3waU3Qu5-14">
          <mxGeometry relative="1" as="geometry" />
        </mxCell>
        <mxCell id="7fnrjBrvbFBZ3waU3Qu5-2" value="H5_phone" style="rounded=1;whiteSpace=wrap;html=1;" vertex="1" parent="1">
          <mxGeometry y="220" width="120" height="60" as="geometry" />
        </mxCell>
        <mxCell id="7fnrjBrvbFBZ3waU3Qu5-19" style="edgeStyle=orthogonalEdgeStyle;rounded=0;orthogonalLoop=1;jettySize=auto;html=1;entryX=0.5;entryY=0;entryDx=0;entryDy=0;" edge="1" parent="1" source="7fnrjBrvbFBZ3waU3Qu5-3" target="7fnrjBrvbFBZ3waU3Qu5-14">
          <mxGeometry relative="1" as="geometry" />
        </mxCell>
        <mxCell id="7fnrjBrvbFBZ3waU3Qu5-3" value="H5_pad" style="rounded=1;whiteSpace=wrap;html=1;" vertex="1" parent="1">
          <mxGeometry x="210" y="220" width="120" height="60" as="geometry" />
        </mxCell>
        <mxCell id="7fnrjBrvbFBZ3waU3Qu5-18" style="edgeStyle=orthogonalEdgeStyle;rounded=0;orthogonalLoop=1;jettySize=auto;html=1;entryX=1;entryY=0.5;entryDx=0;entryDy=0;" edge="1" parent="1" source="7fnrjBrvbFBZ3waU3Qu5-4" target="7fnrjBrvbFBZ3waU3Qu5-14">
          <mxGeometry relative="1" as="geometry">
            <Array as="points">
              <mxPoint x="480" y="470" />
            </Array>
          </mxGeometry>
        </mxCell>
        <mxCell id="7fnrjBrvbFBZ3waU3Qu5-4" value="H5_pc" style="rounded=1;whiteSpace=wrap;html=1;" vertex="1" parent="1">
          <mxGeometry x="420" y="220" width="120" height="60" as="geometry" />
        </mxCell>
        <mxCell id="7fnrjBrvbFBZ3waU3Qu5-10" value="" style="edgeStyle=orthogonalEdgeStyle;rounded=0;orthogonalLoop=1;jettySize=auto;html=1;" edge="1" parent="1" source="7fnrjBrvbFBZ3waU3Qu5-8" target="7fnrjBrvbFBZ3waU3Qu5-9">
          <mxGeometry relative="1" as="geometry" />
        </mxCell>
        <mxCell id="7fnrjBrvbFBZ3waU3Qu5-15" value="" style="edgeStyle=orthogonalEdgeStyle;rounded=0;orthogonalLoop=1;jettySize=auto;html=1;" edge="1" parent="1" source="7fnrjBrvbFBZ3waU3Qu5-8" target="7fnrjBrvbFBZ3waU3Qu5-14">
          <mxGeometry relative="1" as="geometry">
            <Array as="points">
              <mxPoint x="-150" y="460" />
            </Array>
          </mxGeometry>
        </mxCell>
        <mxCell id="7fnrjBrvbFBZ3waU3Qu5-8" value="H5_windows" style="rounded=1;whiteSpace=wrap;html=1;" vertex="1" parent="1">
          <mxGeometry x="-210" y="220" width="120" height="60" as="geometry" />
        </mxCell>
        <mxCell id="7fnrjBrvbFBZ3waU3Qu5-9" value="1.類似electron的桌面應用程式，直接訪問活動網站&lt;br&gt;&lt;br&gt;2. 提供存取本機影音資源播放&lt;br&gt;&lt;br&gt;3.控制設定投屏的畫面" style="rounded=1;whiteSpace=wrap;html=1;align=left;" vertex="1" parent="1">
          <mxGeometry x="-260" y="60" width="220" height="110" as="geometry" />
        </mxCell>
        <mxCell id="7fnrjBrvbFBZ3waU3Qu5-22" value="" style="edgeStyle=orthogonalEdgeStyle;rounded=0;orthogonalLoop=1;jettySize=auto;html=1;" edge="1" parent="1" source="7fnrjBrvbFBZ3waU3Qu5-14" target="7fnrjBrvbFBZ3waU3Qu5-21">
          <mxGeometry relative="1" as="geometry" />
        </mxCell>
        <mxCell id="7fnrjBrvbFBZ3waU3Qu5-24" style="edgeStyle=orthogonalEdgeStyle;rounded=0;orthogonalLoop=1;jettySize=auto;html=1;entryX=0.5;entryY=0;entryDx=0;entryDy=0;" edge="1" parent="1" source="7fnrjBrvbFBZ3waU3Qu5-14" target="7fnrjBrvbFBZ3waU3Qu5-23">
          <mxGeometry relative="1" as="geometry" />
        </mxCell>
        <mxCell id="7fnrjBrvbFBZ3waU3Qu5-14" value="活動管理&amp;amp;用戶平台" style="whiteSpace=wrap;html=1;rounded=1;" vertex="1" parent="1">
          <mxGeometry x="104" y="440" width="120" height="60" as="geometry" />
        </mxCell>
        <mxCell id="7fnrjBrvbFBZ3waU3Qu5-21" value="活動管理" style="whiteSpace=wrap;html=1;rounded=1;" vertex="1" parent="1">
          <mxGeometry x="-10" y="600" width="120" height="60" as="geometry" />
        </mxCell>
        <mxCell id="7fnrjBrvbFBZ3waU3Qu5-23" value="用戶管理" style="whiteSpace=wrap;html=1;rounded=1;" vertex="1" parent="1">
          <mxGeometry x="224" y="600" width="120" height="60" as="geometry" />
        </mxCell>
      </root>
    </mxGraphModel>
  </diagram>
</mxfile>
